<?xml version="1.0" encoding="utf-8"?>
<!-- Generator: Adobe Illustrator 13.0.0, SVG Export Plug-In . SVG Version: 6.00 Build 14948)  -->
<svg version="1.2" baseProfile="tiny" id="Layer_4" xmlns="http://www.w3.org/2000/svg" xmlns:xlink="http://www.w3.org/1999/xlink"
	 x="0px" y="0px" width="97.905px" height="74.58px" viewBox="0 0 97.905 74.58" xml:space="preserve">
<g>
	<path fill="none" stroke="#000000" d="M68.61,30.509c0,0,6.713,10.742,19.633,2.669c12.92-8.074,8.395-20.183,8.395-20.183
		l-15.106,9.44l-4.946-7.915l15.106-9.44c0,0-8.898-9.375-21.818-1.302c-12.92,8.074-6.208,18.815-6.208,18.815l-34.37,21.478
		c0,0-6.713-10.742-19.633-2.669c-12.92,8.074-8.394,20.182-8.394,20.182l15.106-9.439l4.946,7.915L6.213,69.498
		c0,0,8.899,9.377,21.819,1.302c12.92-8.072,6.208-18.813,6.208-18.813L68.61,30.509z"/>
</g>
</svg>
